# File created by Blade
# Date/Time:  Wed Jan 21 16:02:01 2015
# Frame Rate: 120.000 fps
#------------------------------------------------------
:FULLY-SPECIFIED
:DEGREES
1435
root 19.767309 32.714684 -17.978870 -170.994209 1.241310 -180.186725
Spine -21.874890 6.341815 -6.157651
Head 15.618225 -9.781744 -6.116979
LeftShoulder -12.024055 -29.274076 -1.632152
LeftArm -37.768602 -8.768847 -51.544636
LeftForeArm 4.098366 -0.000000 13.334411
LeftHand -2.740074 0.000000 3.376795
LeftHandThumb1 -26.253704 0.000000 33.147579
RightShoulder -9.390616 16.781429 -41.113997
RightArm 39.837439 46.488103 -8.086118
RightForeArm -40.634457 -0.000000 11.678854
RightHand -0.698681 -0.000000 -24.153190
RightHandThumb1 -24.326973 -0.000000 -32.862282
LeftUpLeg 12.767798 0.059697 -18.484027
LeftLeg -1.660325 -0.000000 0.000000
LeftFoot -32.492238 16.788648 -15.035802
LeftToeBase 17.740436 -0.000000 -0.000000
RightUpLeg -19.634758 8.363127 20.959189
RightLeg -3.853861 -0.000000 0.000000
RightFoot -2.158654 -32.094348 -2.141540
RightToeBase 19.308155 -0.000000 -0.000000
1436
root 19.807431 32.712844 -18.013811 -170.999394 1.205392 -180.198702
Spine -21.994649 6.289293 -6.660428
Head 15.763000 -9.890662 -5.811022
LeftShoulder -12.042059 -29.265783 -1.587439
LeftArm -37.701381 -8.733809 -51.473397
LeftForeArm 4.079060 -0.000000 13.472555
LeftHand -2.714103 -0.000000 3.381277
LeftHandThumb1 -26.253704 0.000000 33.147579
RightShoulder -9.384702 16.833305 -41.101682
RightArm 39.861883 46.463699 -7.931466
RightForeArm -40.633376 -0.000000 11.712688
RightHand -0.613385 -0.000000 -24.247559
RightHandThumb1 -24.326973 -0.000000 -32.862282
LeftUpLeg 12.832918 0.076818 -18.419030
LeftLeg -1.650801 -0.000000 0.000000
LeftFoot -32.539384 16.766409 -15.039876
LeftToeBase 17.772296 -0.000000 -0.000000
RightUpLeg -19.560760 8.294870 21.032980
RightLeg -3.872387 -0.000000 0.000000
RightFoot -2.209642 -32.020135 -2.053050
RightToeBase 19.216375 -0.000000 -0.000000
1437
root 19.848414 32.710143 -18.050619 -171.006718 1.173837 -180.207999
Spine -22.119106 6.249470 -7.169988
Head 15.911486 -9.993938 -5.487271
LeftShoulder -12.067176 -29.276022 -1.525451
LeftArm -37.671502 -8.695508 -51.402031
LeftForeArm 4.156616 -0.000000 13.701101
LeftHand -2.740920 -0.000000 3.411788
LeftHandThumb1 -26.253704 0.000000 33.147579
RightShoulder -9.384408 16.829923 -41.109092
RightArm 39.883966 46.486517 -7.725528
RightForeArm -40.714507 -0.000000 11.778878
RightHand -0.725708 -0.000000 -24.464329
RightHandThumb1 -24.326973 -0.000000 -32.862282
LeftUpLeg 12.891471 0.080251 -18.357125
LeftLeg -1.620246 -0.000000 0.000000
LeftFoot -32.608985 16.750106 -15.071522
LeftToeBase 17.799635 -0.000000 -0.000000
RightUpLeg -19.472241 8.200586 21.124570
RightLeg -3.907365 -0.000000 0.000000
RightFoot -2.238555 -31.924831 -2.104438
RightToeBase 19.362209 -0.000000 -0.000000
1438
root 19.887890 32.707659 -18.082343 -171.001107 1.165555 -180.226573
Spine -22.248550 6.230283 -7.695733
Head 16.050625 -10.128469 -5.187424
LeftShoulder -12.077335 -29.390441 -1.451272
LeftArm -37.735624 -8.798417 -51.187259
LeftForeArm 4.300324 -0.000000 13.896720
LeftHand -2.789201 -0.000000 3.469545
LeftHandThumb1 -26.253704 0.000000 33.147579
RightShoulder -9.370800 16.806599 -41.048667
RightArm 39.837521 46.437739 -7.758559
RightForeArm -40.575090 -0.000000 11.677499
RightHand -0.716020 -0.000000 -24.658193
RightHandThumb1 -24.326973 -0.000000 -32.862282
LeftUpLeg 12.909374 0.084075 -18.314770
LeftLeg -1.557072 -0.000000 0.000000
LeftFoot -32.690415 16.757294 -15.102942
LeftToeBase 17.663276 -0.000000 -0.000000
RightUpLeg -19.412285 8.190688 21.173737
RightLeg -3.923496 -0.000000 0.000000
RightFoot -2.283833 -31.896451 -2.061736
RightToeBase 19.443036 -0.000000 -0.000000
1439
root 19.929965 32.704286 -18.118049 -171.017681 1.133871 -180.245524
Spine -22.348977 6.174956 -8.210374
Head 16.162785 -10.236155 -4.876594
LeftShoulder -12.117327 -29.437899 -1.376897
LeftArm -37.708977 -8.597539 -51.200447
LeftForeArm 4.181353 -0.000000 14.107346
LeftHand -2.831547 -0.000000 3.592553
LeftHandThumb1 -26.253704 0.000000 33.147579
RightShoulder -9.331167 16.731912 -40.961757
RightArm 39.718805 46.436815 -7.908738
RightForeArm -40.386172 0.000000 11.571137
RightHand -0.697889 -0.000000 -24.678920
RightHandThumb1 -24.326973 -0.000000 -32.862282
LeftUpLeg 12.977017 0.027874 -18.275250
LeftLeg -1.529318 -0.000000 0.000000
LeftFoot -32.772490 16.806943 -15.155795
LeftToeBase 17.629180 -0.000000 -0.000000
RightUpLeg -19.319694 8.107381 21.247742
RightLeg -3.951381 -0.000000 0.000000
RightFoot -2.331487 -31.795704 -2.064335
RightToeBase 19.450080 -0.000000 -0.000000
